<svg xmlns="http://www.w3.org/2000/svg" xmlns:xlink="http://www.w3.org/1999/xlink" width="190" zoomAndPan="magnify" viewBox="0 0 142.5 74.999997" height="100" preserveAspectRatio="xMidYMid meet" version="1.0"><defs><clipPath id="22d124c992"><path d="M 58 2.984375 L 90 2.984375 L 90 35 L 58 35 Z M 58 2.984375 " clip-rule="nonzero"/></clipPath><clipPath id="4cee9a80de"><path d="M 6.425781 45 L 19 45 L 19 59 L 6.425781 59 Z M 6.425781 45 " clip-rule="nonzero"/></clipPath><clipPath id="b702d79132"><path d="M 125 45 L 135.722656 45 L 135.722656 59 L 125 59 Z M 125 45 " clip-rule="nonzero"/></clipPath><clipPath id="9d7c7493c3"><path d="M 26 65 L 27 65 L 27 71.742188 L 26 71.742188 Z M 26 65 " clip-rule="nonzero"/></clipPath><clipPath id="ea67f58f32"><path d="M 30 65 L 36 65 L 36 71.742188 L 30 71.742188 Z M 30 65 " clip-rule="nonzero"/></clipPath><clipPath id="16cba8ca11"><path d="M 38 65 L 44 65 L 44 71.742188 L 38 71.742188 Z M 38 65 " clip-rule="nonzero"/></clipPath><clipPath id="3b27db6e55"><path d="M 46 65 L 51 65 L 51 71.742188 L 46 71.742188 Z M 46 65 " clip-rule="nonzero"/></clipPath><clipPath id="2b27be0c15"><path d="M 52 65 L 59 65 L 59 71.742188 L 52 71.742188 Z M 52 65 " clip-rule="nonzero"/></clipPath><clipPath id="8765acc1fa"><path d="M 61 65 L 66 65 L 66 71.742188 L 61 71.742188 Z M 61 65 " clip-rule="nonzero"/></clipPath><clipPath id="83509bae70"><path d="M 68 65 L 73 65 L 73 71.742188 L 68 71.742188 Z M 68 65 " clip-rule="nonzero"/></clipPath><clipPath id="e8a74e4fdc"><path d="M 75 65 L 81 65 L 81 71.742188 L 75 71.742188 Z M 75 65 " clip-rule="nonzero"/></clipPath><clipPath id="0d57da2fed"><path d="M 83 65 L 88 65 L 88 71.742188 L 83 71.742188 Z M 83 65 " clip-rule="nonzero"/></clipPath><clipPath id="5db7e7750c"><path d="M 90 65 L 92 65 L 92 71.742188 L 90 71.742188 Z M 90 65 " clip-rule="nonzero"/></clipPath><clipPath id="126f9b737c"><path d="M 95 65 L 101 65 L 101 71.742188 L 95 71.742188 Z M 95 65 " clip-rule="nonzero"/></clipPath><clipPath id="fc021a12c9"><path d="M 104 65 L 110 65 L 110 71.742188 L 104 71.742188 Z M 104 65 " clip-rule="nonzero"/></clipPath><clipPath id="afffd1e4b8"><path d="M 112 65 L 117 65 L 117 71.742188 L 112 71.742188 Z M 112 65 " clip-rule="nonzero"/></clipPath></defs><g clip-path="url(#22d124c992)"><path fill="#848f94" d="M 74.414062 2.984375 L 58.921875 2.984375 L 58.921875 26.25 L 63.011719 30.371094 L 63.011719 7.050781 L 74.417969 7.050781 C 80.683594 7.050781 85.777344 12.253906 85.777344 18.648438 C 85.777344 25.042969 80.683594 30.246094 74.417969 30.246094 L 71.019531 30.246094 L 71.019531 15.128906 L 66.9375 11.011719 L 66.929688 11.011719 L 66.929688 34.3125 L 74.417969 34.3125 C 82.933594 34.3125 89.863281 27.285156 89.863281 18.648438 C 89.863281 10.011719 82.933594 2.984375 74.414062 2.984375 Z M 74.414062 2.984375 " fill-opacity="1" fill-rule="nonzero"/></g><path fill="#848f94" d="M 51.496094 18.757812 L 51.503906 18.765625 C 51.5 18.757812 51.496094 18.753906 51.496094 18.757812 Z M 51.496094 18.757812 " fill-opacity="1" fill-rule="nonzero"/><g clip-path="url(#4cee9a80de)"><path fill="#003040" d="M 18.097656 51.832031 C 18.097656 54.941406 16.183594 58.476562 9.894531 58.476562 C 8.898438 58.476562 7.726562 58.457031 6.535156 58.378906 L 6.535156 58.300781 C 6.828125 58.261719 7.121094 58.109375 7.140625 57.542969 C 7.179688 56.28125 7.179688 55.019531 7.179688 52.007812 C 7.179688 48.980469 7.179688 47.714844 7.140625 46.472656 C 7.125 45.910156 6.828125 45.734375 6.535156 45.714844 L 6.535156 45.640625 C 7.394531 45.601562 9.523438 45.582031 9.835938 45.582031 C 14.425781 45.578125 18.097656 47.015625 18.097656 51.832031 Z M 15.910156 51.832031 C 15.910156 48.589844 14.347656 46.160156 9.894531 46.160156 C 9.679688 46.160156 9.464844 46.160156 9.230469 46.179688 C 9.191406 46.859375 9.191406 47.773438 9.191406 48.9375 L 9.191406 55.078125 C 9.191406 56.242188 9.191406 57.019531 9.230469 57.777344 C 9.503906 57.796875 9.757812 57.796875 10.03125 57.796875 C 13.996094 57.796875 15.910156 55.816406 15.910156 51.832031 Z M 15.910156 51.832031 " fill-opacity="1" fill-rule="nonzero"/></g><path fill="#003040" d="M 35.144531 56.574219 C 35.046875 56.789062 34.34375 58.1875 34.324219 58.378906 L 27.742188 58.378906 C 26.84375 58.378906 26.199219 58.398438 25.535156 58.457031 L 25.515625 58.378906 C 25.699219 58.324219 25.847656 58.21875 25.960938 58.0625 C 26.074219 57.90625 26.125 57.734375 26.121094 57.542969 C 26.160156 56.28125 26.160156 55.019531 26.160156 52.007812 C 26.160156 48.976562 26.160156 47.714844 26.121094 46.472656 C 26.125 46.28125 26.074219 46.109375 25.960938 45.953125 C 25.847656 45.796875 25.699219 45.691406 25.515625 45.636719 L 25.535156 45.539062 C 26.199219 45.597656 26.84375 45.636719 27.683594 45.636719 L 33.660156 45.636719 C 33.8125 46.273438 34.023438 46.898438 34.28125 47.5 L 34.1875 47.617188 C 32.917969 46.492188 31.355469 46.179688 29.558594 46.179688 C 29.128906 46.179688 28.679688 46.179688 28.210938 46.21875 C 28.171875 47.363281 28.171875 48.082031 28.171875 49.054688 L 28.171875 51.523438 C 32.035156 51.484375 32.503906 51.289062 32.71875 50.492188 L 32.816406 50.511719 C 32.761719 50.945312 32.734375 51.378906 32.738281 51.8125 C 32.734375 52.25 32.761719 52.683594 32.816406 53.117188 L 32.71875 53.136719 C 32.503906 52.28125 32.035156 52.144531 28.171875 52.125 L 28.171875 55.039062 C 28.171875 56.203125 28.171875 57.039062 28.210938 57.777344 L 28.972656 57.777344 C 31.355469 57.777344 33.617188 57.507812 35.042969 56.496094 Z M 35.144531 56.574219 " fill-opacity="1" fill-rule="nonzero"/><path fill="#003040" d="M 46.394531 50.667969 C 48.851562 51.71875 50.296875 52.648438 50.296875 54.980469 C 50.296875 57.46875 48.148438 58.789062 45.652344 58.789062 C 44.246094 58.789062 42.566406 58.324219 41.726562 57.546875 L 41.394531 55.136719 L 41.550781 55.078125 C 42.585938 57.234375 44.265625 58.050781 45.691406 58.050781 C 47.347656 58.050781 48.519531 57.136719 48.519531 55.46875 C 48.519531 54.203125 47.679688 53.484375 45.359375 52.457031 C 42.78125 51.308594 41.726562 50.398438 41.726562 48.785156 C 41.726562 46.394531 43.601562 45.230469 45.90625 45.230469 C 47.367188 45.230469 48.636719 45.597656 49.339844 46.257812 L 49.535156 48.355469 L 49.4375 48.433594 C 49.296875 48.070312 49.105469 47.738281 48.863281 47.433594 C 48.617188 47.132812 48.332031 46.871094 48.007812 46.65625 C 47.683594 46.441406 47.332031 46.277344 46.957031 46.171875 C 46.582031 46.0625 46.199219 46.015625 45.808594 46.027344 C 44.304688 46.027344 43.421875 46.917969 43.421875 48.007812 C 43.425781 49.074219 44.089844 49.714844 46.394531 50.667969 Z M 46.394531 50.667969 " fill-opacity="1" fill-rule="nonzero"/><path fill="#003040" d="M 60.804688 58.457031 C 60.53125 58.417969 59.476562 58.378906 59.183594 58.378906 C 58.636719 58.367188 58.089844 58.394531 57.542969 58.457031 L 57.523438 58.378906 C 57.707031 58.324219 57.855469 58.21875 57.96875 58.0625 C 58.082031 57.910156 58.132812 57.734375 58.128906 57.542969 C 58.167969 56.28125 58.167969 55.019531 58.167969 52.007812 C 58.167969 48.976562 58.167969 47.714844 58.128906 46.472656 C 58.128906 46.28125 58.074219 46.105469 57.964844 45.949219 C 57.851562 45.792969 57.707031 45.679688 57.523438 45.617188 L 57.542969 45.539062 C 58.089844 45.613281 58.636719 45.644531 59.183594 45.636719 C 59.726562 45.632812 60.265625 45.601562 60.804688 45.539062 L 60.824219 45.617188 C 60.636719 45.675781 60.488281 45.78125 60.375 45.941406 C 60.261719 46.101562 60.210938 46.277344 60.21875 46.472656 C 60.160156 47.714844 60.179688 48.976562 60.179688 52.007812 C 60.179688 55.015625 60.160156 56.28125 60.21875 57.542969 C 60.210938 57.734375 60.261719 57.90625 60.375 58.0625 C 60.488281 58.21875 60.640625 58.324219 60.824219 58.378906 Z M 60.804688 58.457031 " fill-opacity="1" fill-rule="nonzero"/><path fill="#003040" d="M 82.011719 52.902344 C 81.5625 53.097656 81.40625 53.273438 81.40625 53.582031 L 81.40625 55.972656 C 80.757812 56.878906 79.933594 57.578125 78.933594 58.078125 C 77.9375 58.574219 76.878906 58.8125 75.761719 58.789062 C 71.742188 58.789062 68.246094 56.109375 68.246094 52.007812 C 68.246094 47.890625 71.738281 45.230469 75.761719 45.230469 C 77.695312 45.230469 79.707031 45.871094 80.898438 47.132812 L 80.976562 49.191406 L 80.859375 49.230469 C 80.648438 48.734375 80.371094 48.285156 80.023438 47.875 C 79.671875 47.464844 79.273438 47.113281 78.816406 46.828125 C 78.363281 46.539062 77.875 46.324219 77.351562 46.183594 C 76.832031 46.042969 76.300781 45.984375 75.761719 46.007812 C 72.949219 46.007812 70.511719 48.414062 70.511719 52.007812 C 70.511719 55.542969 72.910156 57.992188 75.761719 57.992188 C 76.988281 58.03125 78.148438 57.769531 79.238281 57.214844 L 79.238281 53.582031 C 79.238281 53.289062 79.082031 53.117188 78.632812 52.902344 L 78.652344 52.804688 C 79.121094 52.863281 80.136719 52.882812 80.449219 52.882812 C 80.742188 52.882812 81.503906 52.863281 81.992188 52.804688 Z M 82.011719 52.902344 " fill-opacity="1" fill-rule="nonzero"/><path fill="#003040" d="M 102.457031 45.636719 C 102.277344 45.695312 102.132812 45.804688 102.019531 45.957031 C 101.910156 46.113281 101.851562 46.28125 101.847656 46.472656 C 101.75 47.714844 101.730469 48.976562 101.730469 52.007812 C 101.730469 55.019531 101.710938 57.523438 101.75 58.789062 L 101.222656 58.789062 L 95.386719 52.667969 C 95.386719 52.667969 93.921875 51.152344 90.328125 47.304688 C 90.367188 48.585938 90.425781 50.042969 90.425781 52.007812 C 90.398438 53.855469 90.460938 55.699219 90.621094 57.542969 C 90.640625 57.953125 90.84375 58.230469 91.226562 58.378906 L 91.207031 58.457031 C 90.851562 58.402344 90.492188 58.375 90.132812 58.378906 C 89.777344 58.375 89.425781 58.402344 89.078125 58.457031 L 89.058594 58.378906 C 89.238281 58.316406 89.378906 58.207031 89.492188 58.054688 C 89.601562 57.902344 89.660156 57.730469 89.664062 57.542969 C 89.761719 56.28125 89.78125 55.015625 89.78125 52.007812 C 89.78125 48.976562 89.78125 48.160156 89.742188 46.917969 C 89.707031 46.632812 89.605469 46.375 89.429688 46.144531 C 89.257812 45.914062 89.035156 45.746094 88.769531 45.636719 L 88.789062 45.539062 C 89.28125 45.601562 89.777344 45.632812 90.273438 45.636719 L 91.445312 45.636719 C 94.664062 49.113281 96.675781 51.210938 96.675781 51.210938 C 96.675781 51.210938 98.667969 53.308594 101.148438 55.816406 C 101.128906 54.707031 101.070312 53.015625 101.050781 52.007812 C 100.992188 48.976562 100.953125 47.714844 100.835938 46.472656 C 100.832031 46.28125 100.773438 46.105469 100.65625 45.953125 C 100.542969 45.796875 100.394531 45.691406 100.210938 45.636719 L 100.226562 45.539062 C 100.597656 45.601562 100.96875 45.632812 101.339844 45.632812 C 101.707031 45.632812 102.074219 45.601562 102.433594 45.539062 Z M 102.457031 45.636719 " fill-opacity="1" fill-rule="nonzero"/><path fill="#003040" d="M 119.308594 56.574219 C 119.210938 56.789062 118.507812 58.1875 118.488281 58.378906 L 111.90625 58.378906 C 111.007812 58.378906 110.363281 58.398438 109.699219 58.457031 L 109.679688 58.378906 C 109.867188 58.324219 110.011719 58.21875 110.125 58.0625 C 110.238281 57.910156 110.292969 57.734375 110.285156 57.542969 C 110.324219 56.28125 110.324219 55.019531 110.324219 52.007812 C 110.324219 48.976562 110.324219 47.714844 110.285156 46.472656 C 110.292969 46.28125 110.238281 46.109375 110.125 45.953125 C 110.011719 45.796875 109.867188 45.691406 109.679688 45.636719 L 109.699219 45.539062 C 110.363281 45.597656 111.011719 45.636719 111.847656 45.636719 L 117.824219 45.636719 C 117.980469 46.273438 118.1875 46.898438 118.449219 47.5 L 118.351562 47.617188 C 117.082031 46.492188 115.519531 46.179688 113.722656 46.179688 C 113.292969 46.179688 112.84375 46.179688 112.375 46.21875 C 112.335938 47.363281 112.335938 48.082031 112.335938 49.054688 L 112.335938 51.523438 C 116.203125 51.484375 116.671875 51.289062 116.886719 50.492188 L 116.984375 50.511719 C 116.925781 50.945312 116.902344 51.378906 116.90625 51.8125 C 116.898438 52.25 116.925781 52.683594 116.984375 53.117188 L 116.886719 53.136719 C 116.671875 52.28125 116.203125 52.144531 112.335938 52.125 L 112.335938 55.039062 C 112.335938 56.203125 112.335938 57.039062 112.375 57.777344 L 113.136719 57.777344 C 115.519531 57.777344 117.785156 57.507812 119.210938 56.496094 Z M 119.308594 56.574219 " fill-opacity="1" fill-rule="nonzero"/><g clip-path="url(#b702d79132)"><path fill="#003040" d="M 135.613281 58.246094 C 135.15625 58.480469 134.667969 58.585938 134.152344 58.554688 C 131.945312 58.554688 131.261719 56.574219 130.617188 54.863281 C 130.1875 53.679688 129.796875 52.632812 128.9375 52.457031 L 128.410156 52.457031 L 128.410156 53.367188 C 128.410156 55.660156 128.410156 56.417969 128.449219 57.546875 C 128.4375 57.738281 128.492188 57.914062 128.605469 58.070312 C 128.71875 58.226562 128.871094 58.332031 129.054688 58.382812 L 129.035156 58.460938 C 128.503906 58.40625 127.96875 58.378906 127.433594 58.382812 C 126.878906 58.378906 126.328125 58.40625 125.777344 58.460938 L 125.757812 58.382812 C 125.941406 58.328125 126.089844 58.222656 126.203125 58.066406 C 126.3125 57.910156 126.367188 57.738281 126.363281 57.546875 C 126.402344 56.285156 126.402344 55.039062 126.402344 52.011719 C 126.402344 48.980469 126.402344 47.71875 126.363281 46.476562 C 126.34375 46.011719 126.148438 45.738281 125.777344 45.71875 L 125.777344 45.640625 C 126.65625 45.601562 127.769531 45.582031 128.996094 45.582031 C 132.589844 45.582031 134.09375 47.039062 134.09375 48.785156 C 134.09375 50.886719 132.335938 52.011719 130.207031 52.359375 C 131.285156 52.769531 132.160156 54.148438 132.960938 55.46875 C 133.820312 56.847656 134.5625 58.167969 135.382812 58.167969 C 135.457031 58.164062 135.527344 58.152344 135.597656 58.132812 Z M 132.003906 48.785156 C 132.003906 47.210938 131.105469 46.21875 128.449219 46.21875 C 128.410156 47.382812 128.410156 49.171875 128.410156 51.71875 C 128.554688 51.734375 128.695312 51.738281 128.839844 51.738281 C 130.988281 51.738281 132.003906 50.472656 132.003906 48.785156 Z M 132.003906 48.785156 " fill-opacity="1" fill-rule="nonzero"/></g><g clip-path="url(#9d7c7493c3)"><path fill="#003040" d="M 26.136719 65.234375 L 26.835938 65.234375 L 26.835938 71.640625 L 26.136719 71.640625 Z M 26.136719 65.234375 " fill-opacity="1" fill-rule="nonzero"/></g><g clip-path="url(#ea67f58f32)"><path fill="#003040" d="M 30.738281 65.234375 L 31.390625 65.234375 L 34.757812 70.269531 L 34.757812 65.234375 L 35.4375 65.234375 L 35.4375 71.640625 L 34.859375 71.640625 L 31.410156 66.46875 L 31.410156 71.640625 L 30.738281 71.640625 Z M 30.738281 65.234375 " fill-opacity="1" fill-rule="nonzero"/></g><g clip-path="url(#16cba8ca11)"><path fill="#003040" d="M 38.851562 70.824219 L 39.285156 70.304688 C 39.777344 70.820312 40.382812 71.085938 41.097656 71.101562 C 41.871094 71.101562 42.394531 70.636719 42.394531 70.03125 L 42.394531 70.011719 C 42.394531 69.480469 42.128906 69.140625 40.957031 68.730469 C 39.625 68.234375 39.109375 67.761719 39.109375 66.855469 L 39.109375 66.835938 C 39.109375 65.875 39.910156 65.140625 41.042969 65.140625 C 41.78125 65.128906 42.425781 65.371094 42.972656 65.863281 L 42.558594 66.402344 C 42.128906 65.992188 41.613281 65.78125 41.015625 65.773438 C 40.867188 65.753906 40.722656 65.765625 40.578125 65.808594 C 40.433594 65.847656 40.304688 65.917969 40.191406 66.011719 C 40.074219 66.105469 39.984375 66.21875 39.917969 66.351562 C 39.847656 66.480469 39.808594 66.621094 39.796875 66.769531 L 39.796875 66.789062 C 39.796875 67.347656 40.085938 67.667969 41.296875 68.105469 C 42.613281 68.59375 43.074219 69.113281 43.074219 69.96875 L 43.074219 69.984375 C 43.074219 71.007812 42.238281 71.734375 41.085938 71.734375 C 40.21875 71.734375 39.472656 71.433594 38.851562 70.824219 Z M 38.851562 70.824219 " fill-opacity="1" fill-rule="nonzero"/></g><g clip-path="url(#3b27db6e55)"><path fill="#003040" d="M 47.886719 65.871094 L 46.074219 65.871094 L 46.074219 65.234375 L 50.390625 65.234375 L 50.390625 65.875 L 48.578125 65.875 L 48.578125 71.640625 L 47.886719 71.640625 Z M 47.886719 65.871094 " fill-opacity="1" fill-rule="nonzero"/></g><g clip-path="url(#2b27be0c15)"><path fill="#003040" d="M 55.121094 65.1875 L 55.804688 65.1875 L 58.261719 71.640625 L 57.523438 71.640625 L 56.898438 69.957031 L 54 69.957031 L 53.371094 71.640625 L 52.664062 71.640625 Z M 56.667969 69.332031 L 55.453125 66.082031 L 54.226562 69.332031 Z M 56.667969 69.332031 " fill-opacity="1" fill-rule="nonzero"/></g><g clip-path="url(#8765acc1fa)"><path fill="#003040" d="M 61.636719 65.234375 L 62.335938 65.234375 L 62.335938 71.011719 L 65.308594 71.011719 L 65.308594 71.640625 L 61.636719 71.640625 Z M 61.636719 65.234375 " fill-opacity="1" fill-rule="nonzero"/></g><g clip-path="url(#83509bae70)"><path fill="#003040" d="M 68.710938 65.234375 L 69.414062 65.234375 L 69.414062 71.011719 L 72.386719 71.011719 L 72.386719 71.640625 L 68.710938 71.640625 Z M 68.710938 65.234375 " fill-opacity="1" fill-rule="nonzero"/></g><g clip-path="url(#e8a74e4fdc)"><path fill="#003040" d="M 77.765625 65.1875 L 78.445312 65.1875 L 80.902344 71.640625 L 80.167969 71.640625 L 79.542969 69.957031 L 76.644531 69.957031 L 76.015625 71.640625 L 75.308594 71.640625 Z M 79.3125 69.332031 L 78.097656 66.082031 L 76.871094 69.332031 Z M 79.3125 69.332031 " fill-opacity="1" fill-rule="nonzero"/></g><g clip-path="url(#0d57da2fed)"><path fill="#003040" d="M 84.988281 65.871094 L 83.175781 65.871094 L 83.175781 65.234375 L 87.492188 65.234375 L 87.492188 65.875 L 85.679688 65.875 L 85.679688 71.640625 L 84.988281 71.640625 Z M 84.988281 65.871094 " fill-opacity="1" fill-rule="nonzero"/></g><g clip-path="url(#5db7e7750c)"><path fill="#003040" d="M 90.960938 65.234375 L 91.664062 65.234375 L 91.664062 71.640625 L 90.960938 71.640625 Z M 90.960938 65.234375 " fill-opacity="1" fill-rule="nonzero"/></g><g clip-path="url(#126f9b737c)"><path fill="#003040" d="M 95.3125 68.480469 L 95.3125 68.398438 C 95.3125 66.523438 96.453125 65.128906 98.09375 65.128906 C 99.738281 65.128906 100.851562 66.511719 100.851562 68.390625 L 100.851562 68.472656 C 100.851562 70.347656 99.730469 71.742188 98.082031 71.742188 C 96.4375 71.742188 95.3125 70.359375 95.3125 68.480469 Z M 100.136719 68.472656 L 100.136719 68.410156 C 100.136719 66.859375 99.261719 65.761719 98.082031 65.761719 C 96.898438 65.761719 96.03125 66.851562 96.03125 68.398438 L 96.03125 68.464844 C 96.03125 70.011719 96.90625 71.109375 98.09375 71.109375 C 99.269531 71.109375 100.136719 70.019531 100.136719 68.472656 Z M 100.136719 68.472656 " fill-opacity="1" fill-rule="nonzero"/></g><g clip-path="url(#fc021a12c9)"><path fill="#003040" d="M 104.453125 65.234375 L 105.105469 65.234375 L 108.472656 70.269531 L 108.472656 65.234375 L 109.152344 65.234375 L 109.152344 71.640625 L 108.574219 71.640625 L 105.121094 66.46875 L 105.121094 71.640625 L 104.449219 71.640625 Z M 104.453125 65.234375 " fill-opacity="1" fill-rule="nonzero"/></g><g clip-path="url(#afffd1e4b8)"><path fill="#003040" d="M 112.566406 70.824219 L 113 70.304688 C 113.492188 70.820312 114.097656 71.085938 114.8125 71.101562 C 115.585938 71.101562 116.109375 70.636719 116.109375 70.03125 L 116.109375 70.011719 C 116.109375 69.480469 115.84375 69.140625 114.675781 68.730469 C 113.339844 68.234375 112.824219 67.761719 112.824219 66.855469 L 112.824219 66.835938 C 112.824219 65.875 113.625 65.140625 114.757812 65.140625 C 115.496094 65.128906 116.140625 65.371094 116.6875 65.863281 L 116.273438 66.402344 C 115.84375 65.992188 115.328125 65.78125 114.730469 65.773438 C 114.582031 65.753906 114.4375 65.765625 114.292969 65.808594 C 114.148438 65.847656 114.019531 65.917969 113.90625 66.011719 C 113.789062 66.105469 113.699219 66.21875 113.632812 66.351562 C 113.5625 66.480469 113.523438 66.621094 113.511719 66.769531 L 113.511719 66.789062 C 113.511719 67.347656 113.796875 67.667969 115.011719 68.105469 C 116.328125 68.59375 116.789062 69.113281 116.789062 69.96875 L 116.789062 69.984375 C 116.789062 71.007812 115.953125 71.734375 114.800781 71.734375 C 113.933594 71.734375 113.1875 71.433594 112.566406 70.824219 Z M 112.566406 70.824219 " fill-opacity="1" fill-rule="nonzero"/></g></svg>