<svg xmlns="http://www.w3.org/2000/svg" xmlns:xlink="http://www.w3.org/1999/xlink" width="190" zoomAndPan="magnify" viewBox="0 0 142.5 74.999997" height="100" preserveAspectRatio="xMidYMid meet" version="1.0"><defs><clipPath id="576f739e2a"><path d="M 58 2.984375 L 90 2.984375 L 90 35 L 58 35 Z M 58 2.984375 " clip-rule="nonzero"/></clipPath><clipPath id="46aa1298dc"><path d="M 6.410156 45 L 19 45 L 19 59 L 6.410156 59 Z M 6.410156 45 " clip-rule="nonzero"/></clipPath><clipPath id="830700f4c7"><path d="M 125 45 L 135.707031 45 L 135.707031 59 L 125 59 Z M 125 45 " clip-rule="nonzero"/></clipPath><clipPath id="8200517a8e"><path d="M 26 65 L 27 65 L 27 71.742188 L 26 71.742188 Z M 26 65 " clip-rule="nonzero"/></clipPath><clipPath id="fccb850f28"><path d="M 30 65 L 36 65 L 36 71.742188 L 30 71.742188 Z M 30 65 " clip-rule="nonzero"/></clipPath><clipPath id="3c3ce0226a"><path d="M 38 65 L 44 65 L 44 71.742188 L 38 71.742188 Z M 38 65 " clip-rule="nonzero"/></clipPath><clipPath id="a98c95dd41"><path d="M 46 65 L 51 65 L 51 71.742188 L 46 71.742188 Z M 46 65 " clip-rule="nonzero"/></clipPath><clipPath id="cf9249c4be"><path d="M 52 65 L 59 65 L 59 71.742188 L 52 71.742188 Z M 52 65 " clip-rule="nonzero"/></clipPath><clipPath id="2a0a74398a"><path d="M 61 65 L 66 65 L 66 71.742188 L 61 71.742188 Z M 61 65 " clip-rule="nonzero"/></clipPath><clipPath id="b611ae327f"><path d="M 68 65 L 73 65 L 73 71.742188 L 68 71.742188 Z M 68 65 " clip-rule="nonzero"/></clipPath><clipPath id="274f457e21"><path d="M 75 65 L 81 65 L 81 71.742188 L 75 71.742188 Z M 75 65 " clip-rule="nonzero"/></clipPath><clipPath id="3ee1efc2a0"><path d="M 83 65 L 88 65 L 88 71.742188 L 83 71.742188 Z M 83 65 " clip-rule="nonzero"/></clipPath><clipPath id="9b484949d6"><path d="M 90 65 L 92 65 L 92 71.742188 L 90 71.742188 Z M 90 65 " clip-rule="nonzero"/></clipPath><clipPath id="3e8836eb97"><path d="M 95 65 L 101 65 L 101 71.742188 L 95 71.742188 Z M 95 65 " clip-rule="nonzero"/></clipPath><clipPath id="c058cdd6bc"><path d="M 104 65 L 110 65 L 110 71.742188 L 104 71.742188 Z M 104 65 " clip-rule="nonzero"/></clipPath><clipPath id="1080eb5143"><path d="M 112 65 L 117 65 L 117 71.742188 L 112 71.742188 Z M 112 65 " clip-rule="nonzero"/></clipPath></defs><g clip-path="url(#576f739e2a)"><path fill="#ffffff" d="M 74.398438 2.984375 L 58.90625 2.984375 L 58.90625 26.25 L 62.996094 30.371094 L 62.996094 7.050781 L 74.398438 7.050781 C 80.660156 7.050781 85.753906 12.253906 85.753906 18.648438 C 85.753906 25.042969 80.660156 30.246094 74.398438 30.246094 L 71.003906 30.246094 L 71.003906 15.125 L 66.921875 11.011719 L 66.914062 11.011719 L 66.914062 34.3125 L 74.398438 34.3125 C 82.914062 34.3125 89.84375 27.285156 89.84375 18.648438 C 89.84375 10.007812 82.914062 2.984375 74.398438 2.984375 Z M 74.398438 2.984375 " fill-opacity="1" fill-rule="nonzero"/></g><path fill="#ffffff" d="M 51.484375 18.757812 L 51.492188 18.765625 C 51.488281 18.757812 51.484375 18.753906 51.484375 18.757812 Z M 51.484375 18.757812 " fill-opacity="1" fill-rule="nonzero"/><g clip-path="url(#46aa1298dc)"><path fill="#ffffff" d="M 18.089844 51.835938 C 18.089844 54.941406 16.175781 58.476562 9.886719 58.476562 C 8.894531 58.476562 7.722656 58.457031 6.53125 58.378906 L 6.53125 58.304688 C 6.824219 58.265625 7.117188 58.109375 7.136719 57.546875 C 7.175781 56.28125 7.175781 55.019531 7.175781 52.007812 C 7.175781 48.976562 7.175781 47.714844 7.136719 46.472656 C 7.117188 45.910156 6.820312 45.734375 6.53125 45.714844 L 6.53125 45.636719 C 7.390625 45.597656 9.515625 45.578125 9.828125 45.578125 C 14.417969 45.578125 18.089844 47.015625 18.089844 51.835938 Z M 15.902344 51.835938 C 15.902344 48.589844 14.339844 46.160156 9.890625 46.160156 C 9.675781 46.160156 9.460938 46.160156 9.226562 46.179688 C 9.1875 46.859375 9.1875 47.773438 9.1875 48.9375 L 9.1875 55.078125 C 9.1875 56.242188 9.1875 57.019531 9.226562 57.78125 C 9.5 57.800781 9.753906 57.800781 10.027344 57.800781 C 13.988281 57.796875 15.902344 55.816406 15.902344 51.835938 Z M 15.902344 51.835938 " fill-opacity="1" fill-rule="nonzero"/></g><path fill="#ffffff" d="M 35.132812 56.574219 C 35.035156 56.789062 34.332031 58.1875 34.316406 58.382812 L 27.734375 58.382812 C 26.835938 58.382812 26.191406 58.402344 25.527344 58.460938 L 25.507812 58.382812 C 25.691406 58.324219 25.839844 58.21875 25.953125 58.066406 C 26.066406 57.910156 26.117188 57.738281 26.113281 57.546875 C 26.152344 56.285156 26.152344 55.019531 26.152344 52.007812 C 26.152344 48.976562 26.152344 47.714844 26.113281 46.472656 C 26.117188 46.28125 26.066406 46.109375 25.953125 45.953125 C 25.839844 45.796875 25.691406 45.691406 25.507812 45.636719 L 25.527344 45.539062 C 26.191406 45.597656 26.835938 45.636719 27.675781 45.636719 L 33.648438 45.636719 C 33.804688 46.277344 34.015625 46.898438 34.277344 47.5 L 34.179688 47.617188 C 32.910156 46.492188 31.347656 46.179688 29.550781 46.179688 C 29.121094 46.179688 28.671875 46.179688 28.203125 46.21875 C 28.164062 47.367188 28.164062 48.085938 28.164062 49.054688 L 28.164062 51.523438 C 32.03125 51.484375 32.5 51.289062 32.714844 50.492188 L 32.8125 50.511719 C 32.753906 50.945312 32.730469 51.378906 32.734375 51.8125 C 32.726562 52.246094 32.753906 52.679688 32.8125 53.113281 L 32.714844 53.132812 C 32.5 52.277344 32.03125 52.140625 28.164062 52.121094 L 28.164062 55.035156 C 28.164062 56.199219 28.164062 57.035156 28.203125 57.773438 L 28.964844 57.773438 C 31.347656 57.773438 33.613281 57.503906 35.039062 56.492188 Z M 35.132812 56.574219 " fill-opacity="1" fill-rule="nonzero"/><path fill="#ffffff" d="M 46.382812 50.667969 C 48.839844 51.71875 50.285156 52.648438 50.285156 54.984375 C 50.285156 57.46875 48.136719 58.792969 45.636719 58.792969 C 44.230469 58.792969 42.550781 58.324219 41.710938 57.546875 L 41.378906 55.140625 L 41.539062 55.082031 C 42.570312 57.238281 44.25 58.054688 45.675781 58.054688 C 47.335938 58.054688 48.507812 57.140625 48.507812 55.46875 C 48.507812 54.207031 47.667969 53.488281 45.34375 52.457031 C 42.765625 51.3125 41.710938 50.398438 41.710938 48.785156 C 41.710938 46.394531 43.585938 45.230469 45.890625 45.230469 C 47.355469 45.230469 48.625 45.601562 49.328125 46.261719 L 49.523438 48.359375 L 49.425781 48.4375 C 49.285156 48.074219 49.09375 47.742188 48.847656 47.4375 C 48.605469 47.132812 48.320312 46.875 47.996094 46.65625 C 47.667969 46.441406 47.320312 46.28125 46.941406 46.171875 C 46.566406 46.066406 46.183594 46.015625 45.792969 46.027344 C 44.289062 46.027344 43.410156 46.921875 43.410156 48.007812 C 43.414062 49.074219 44.078125 49.71875 46.382812 50.667969 Z M 46.382812 50.667969 " fill-opacity="1" fill-rule="nonzero"/><path fill="#ffffff" d="M 60.789062 58.457031 C 60.515625 58.421875 59.460938 58.378906 59.171875 58.378906 C 58.621094 58.367188 58.074219 58.394531 57.53125 58.457031 L 57.511719 58.378906 C 57.695312 58.324219 57.84375 58.21875 57.957031 58.066406 C 58.066406 57.910156 58.121094 57.738281 58.117188 57.546875 C 58.15625 56.28125 58.15625 55.019531 58.15625 52.007812 C 58.15625 48.976562 58.15625 47.714844 58.117188 46.472656 C 58.117188 46.28125 58.0625 46.105469 57.953125 45.949219 C 57.839844 45.789062 57.695312 45.679688 57.511719 45.617188 L 57.53125 45.539062 C 58.074219 45.609375 58.621094 45.644531 59.171875 45.636719 C 59.710938 45.632812 60.253906 45.601562 60.789062 45.539062 L 60.808594 45.617188 C 60.625 45.675781 60.472656 45.785156 60.363281 45.941406 C 60.25 46.101562 60.195312 46.277344 60.203125 46.472656 C 60.144531 47.714844 60.164062 48.976562 60.164062 52.007812 C 60.164062 55.019531 60.144531 56.28125 60.203125 57.546875 C 60.195312 57.738281 60.25 57.910156 60.363281 58.066406 C 60.476562 58.222656 60.625 58.328125 60.808594 58.378906 Z M 60.789062 58.457031 " fill-opacity="1" fill-rule="nonzero"/><path fill="#ffffff" d="M 81.992188 52.902344 C 81.542969 53.097656 81.386719 53.273438 81.386719 53.582031 L 81.386719 55.972656 C 80.738281 56.878906 79.917969 57.582031 78.917969 58.078125 C 77.921875 58.578125 76.863281 58.8125 75.746094 58.789062 C 71.722656 58.789062 68.230469 56.109375 68.230469 52.011719 C 68.230469 47.890625 71.722656 45.230469 75.746094 45.230469 C 77.679688 45.230469 79.691406 45.871094 80.878906 47.132812 L 80.957031 49.195312 L 80.84375 49.234375 C 80.632812 48.738281 80.351562 48.285156 80.003906 47.875 C 79.65625 47.464844 79.253906 47.117188 78.800781 46.828125 C 78.34375 46.542969 77.855469 46.328125 77.335938 46.1875 C 76.816406 46.046875 76.285156 45.988281 75.746094 46.011719 C 72.933594 46.011719 70.496094 48.417969 70.496094 52.011719 C 70.496094 55.546875 72.898438 57.996094 75.746094 57.996094 C 76.972656 58.035156 78.128906 57.777344 79.222656 57.21875 L 79.222656 53.585938 C 79.222656 53.292969 79.066406 53.117188 78.617188 52.90625 L 78.636719 52.808594 C 79.105469 52.867188 80.121094 52.886719 80.433594 52.886719 C 80.726562 52.886719 81.488281 52.867188 81.972656 52.808594 Z M 81.992188 52.902344 " fill-opacity="1" fill-rule="nonzero"/><path fill="#ffffff" d="M 102.433594 45.636719 C 102.257812 45.699219 102.109375 45.808594 102 45.960938 C 101.890625 46.113281 101.832031 46.285156 101.828125 46.472656 C 101.730469 47.714844 101.710938 48.976562 101.710938 52.007812 C 101.710938 55.019531 101.691406 57.527344 101.730469 58.789062 L 101.203125 58.789062 L 95.367188 52.667969 C 95.367188 52.667969 93.90625 51.152344 90.3125 47.308594 C 90.351562 48.589844 90.410156 50.046875 90.410156 52.007812 C 90.378906 53.859375 90.445312 55.703125 90.605469 57.546875 C 90.625 57.953125 90.828125 58.230469 91.210938 58.382812 L 91.191406 58.460938 C 90.835938 58.402344 90.476562 58.375 90.117188 58.382812 C 89.761719 58.375 89.410156 58.402344 89.0625 58.460938 L 89.042969 58.382812 C 89.21875 58.316406 89.363281 58.210938 89.476562 58.054688 C 89.585938 57.902344 89.644531 57.734375 89.648438 57.546875 C 89.746094 56.285156 89.765625 55.019531 89.765625 52.007812 C 89.765625 48.976562 89.765625 48.164062 89.726562 46.917969 C 89.691406 46.632812 89.589844 46.375 89.414062 46.144531 C 89.238281 45.914062 89.015625 45.746094 88.75 45.636719 L 88.769531 45.539062 C 89.261719 45.601562 89.753906 45.636719 90.253906 45.636719 L 91.421875 45.636719 C 94.644531 49.113281 96.65625 51.214844 96.65625 51.214844 C 96.65625 51.214844 98.648438 53.3125 101.125 55.816406 C 101.105469 54.710938 101.046875 53.019531 101.027344 52.011719 C 100.96875 48.980469 100.929688 47.714844 100.8125 46.472656 C 100.808594 46.28125 100.75 46.109375 100.636719 45.953125 C 100.519531 45.800781 100.371094 45.695312 100.1875 45.636719 L 100.207031 45.539062 C 100.574219 45.601562 100.945312 45.636719 101.320312 45.636719 C 101.6875 45.636719 102.050781 45.601562 102.414062 45.539062 Z M 102.433594 45.636719 " fill-opacity="1" fill-rule="nonzero"/><path fill="#ffffff" d="M 119.285156 56.574219 C 119.1875 56.789062 118.484375 58.1875 118.464844 58.382812 L 111.882812 58.382812 C 110.988281 58.382812 110.339844 58.402344 109.679688 58.460938 L 109.660156 58.382812 C 109.84375 58.324219 109.992188 58.21875 110.101562 58.066406 C 110.214844 57.910156 110.269531 57.738281 110.265625 57.546875 C 110.304688 56.285156 110.304688 55.019531 110.304688 52.007812 C 110.304688 48.976562 110.304688 47.714844 110.265625 46.472656 C 110.269531 46.28125 110.214844 46.109375 110.101562 45.953125 C 109.992188 45.796875 109.84375 45.691406 109.660156 45.636719 L 109.679688 45.539062 C 110.34375 45.597656 110.984375 45.636719 111.824219 45.636719 L 117.800781 45.636719 C 117.957031 46.277344 118.164062 46.898438 118.425781 47.5 L 118.328125 47.617188 C 117.058594 46.492188 115.5 46.179688 113.703125 46.179688 C 113.273438 46.179688 112.824219 46.179688 112.355469 46.21875 C 112.316406 47.367188 112.316406 48.085938 112.316406 49.054688 L 112.316406 51.523438 C 116.183594 51.484375 116.652344 51.289062 116.863281 50.492188 L 116.960938 50.511719 C 116.90625 50.945312 116.878906 51.378906 116.882812 51.8125 C 116.878906 52.246094 116.90625 52.679688 116.960938 53.113281 L 116.863281 53.132812 C 116.648438 52.277344 116.183594 52.140625 112.316406 52.121094 L 112.316406 55.035156 C 112.316406 56.199219 112.316406 57.035156 112.355469 57.773438 L 113.117188 57.773438 C 115.5 57.773438 117.765625 57.503906 119.1875 56.492188 Z M 119.285156 56.574219 " fill-opacity="1" fill-rule="nonzero"/><g clip-path="url(#830700f4c7)"><path fill="#ffffff" d="M 135.585938 58.246094 C 135.128906 58.480469 134.640625 58.585938 134.125 58.558594 C 131.917969 58.558594 131.234375 56.574219 130.589844 54.867188 C 130.160156 53.679688 129.769531 52.632812 128.910156 52.457031 L 128.382812 52.457031 L 128.382812 53.371094 C 128.382812 55.664062 128.382812 56.421875 128.421875 57.546875 C 128.414062 57.738281 128.464844 57.914062 128.578125 58.070312 C 128.691406 58.226562 128.84375 58.332031 129.027344 58.382812 L 129.007812 58.460938 C 128.476562 58.40625 127.941406 58.378906 127.40625 58.382812 C 126.851562 58.378906 126.300781 58.40625 125.75 58.460938 L 125.730469 58.382812 C 125.914062 58.328125 126.0625 58.222656 126.171875 58.066406 C 126.285156 57.910156 126.339844 57.738281 126.332031 57.546875 C 126.371094 56.285156 126.371094 55.039062 126.371094 52.011719 C 126.371094 48.980469 126.371094 47.714844 126.332031 46.472656 C 126.316406 46.003906 126.121094 45.734375 125.75 45.714844 L 125.75 45.636719 C 126.625 45.597656 127.738281 45.578125 128.96875 45.578125 C 132.5625 45.578125 134.066406 47.035156 134.066406 48.785156 C 134.066406 50.882812 132.308594 52.007812 130.179688 52.359375 C 131.253906 52.769531 132.132812 54.148438 132.933594 55.46875 C 133.792969 56.847656 134.535156 58.167969 135.355469 58.167969 C 135.425781 58.164062 135.5 58.152344 135.570312 58.128906 Z M 131.976562 48.785156 C 131.976562 47.210938 131.078125 46.21875 128.421875 46.21875 C 128.382812 47.386719 128.382812 49.171875 128.382812 51.71875 C 128.527344 51.734375 128.671875 51.742188 128.8125 51.738281 C 130.960938 51.738281 131.976562 50.472656 131.976562 48.785156 Z M 131.976562 48.785156 " fill-opacity="1" fill-rule="nonzero"/></g><g clip-path="url(#8200517a8e)"><path fill="#ffffff" d="M 26.128906 65.234375 L 26.828125 65.234375 L 26.828125 71.640625 L 26.128906 71.640625 Z M 26.128906 65.234375 " fill-opacity="1" fill-rule="nonzero"/></g><g clip-path="url(#fccb850f28)"><path fill="#ffffff" d="M 30.726562 65.234375 L 31.378906 65.234375 L 34.746094 70.269531 L 34.746094 65.234375 L 35.425781 65.234375 L 35.425781 71.640625 L 34.847656 71.640625 L 31.398438 66.46875 L 31.398438 71.640625 L 30.730469 71.640625 Z M 30.726562 65.234375 " fill-opacity="1" fill-rule="nonzero"/></g><g clip-path="url(#3c3ce0226a)"><path fill="#ffffff" d="M 38.84375 70.824219 L 39.273438 70.304688 C 39.765625 70.824219 40.371094 71.089844 41.085938 71.101562 C 41.246094 71.121094 41.402344 71.109375 41.554688 71.0625 C 41.707031 71.019531 41.84375 70.945312 41.96875 70.84375 C 42.089844 70.742188 42.1875 70.621094 42.261719 70.480469 C 42.332031 70.339844 42.375 70.191406 42.382812 70.03125 L 42.382812 70.011719 C 42.382812 69.480469 42.117188 69.144531 40.949219 68.730469 C 39.613281 68.238281 39.097656 67.761719 39.097656 66.855469 L 39.097656 66.832031 C 39.109375 66.589844 39.164062 66.359375 39.269531 66.140625 C 39.375 65.921875 39.515625 65.730469 39.699219 65.570312 C 39.882812 65.410156 40.089844 65.292969 40.320312 65.21875 C 40.550781 65.144531 40.789062 65.117188 41.03125 65.140625 C 41.773438 65.128906 42.417969 65.367188 42.964844 65.863281 L 42.550781 66.402344 C 42.121094 65.988281 41.605469 65.777344 41.003906 65.769531 C 40.859375 65.753906 40.710938 65.765625 40.570312 65.804688 C 40.425781 65.847656 40.296875 65.914062 40.183594 66.011719 C 40.066406 66.105469 39.976562 66.21875 39.910156 66.347656 C 39.839844 66.480469 39.800781 66.621094 39.789062 66.769531 L 39.789062 66.789062 C 39.789062 67.34375 40.078125 67.667969 41.289062 68.105469 C 42.605469 68.589844 43.066406 69.113281 43.066406 69.964844 L 43.066406 69.980469 C 43.066406 71.007812 42.230469 71.730469 41.082031 71.730469 C 40.210938 71.734375 39.464844 71.433594 38.84375 70.824219 Z M 38.84375 70.824219 " fill-opacity="1" fill-rule="nonzero"/></g><g clip-path="url(#a98c95dd41)"><path fill="#ffffff" d="M 47.875 65.875 L 46.0625 65.875 L 46.0625 65.234375 L 50.378906 65.234375 L 50.378906 65.875 L 48.566406 65.875 L 48.566406 71.644531 L 47.875 71.644531 Z M 47.875 65.875 " fill-opacity="1" fill-rule="nonzero"/></g><g clip-path="url(#cf9249c4be)"><path fill="#ffffff" d="M 55.109375 65.1875 L 55.785156 65.1875 L 58.242188 71.640625 L 57.503906 71.640625 L 56.878906 69.957031 L 53.980469 69.957031 L 53.355469 71.640625 L 52.644531 71.640625 Z M 56.652344 69.332031 L 55.4375 66.082031 L 54.214844 69.332031 Z M 56.652344 69.332031 " fill-opacity="1" fill-rule="nonzero"/></g><g clip-path="url(#2a0a74398a)"><path fill="#ffffff" d="M 61.621094 65.234375 L 62.320312 65.234375 L 62.320312 71.011719 L 65.292969 71.011719 L 65.292969 71.640625 L 61.621094 71.640625 Z M 61.621094 65.234375 " fill-opacity="1" fill-rule="nonzero"/></g><g clip-path="url(#b611ae327f)"><path fill="#ffffff" d="M 68.695312 65.234375 L 69.394531 65.234375 L 69.394531 71.011719 L 72.367188 71.011719 L 72.367188 71.640625 L 68.695312 71.640625 Z M 68.695312 65.234375 " fill-opacity="1" fill-rule="nonzero"/></g><g clip-path="url(#274f457e21)"><path fill="#ffffff" d="M 77.75 65.1875 L 78.429688 65.1875 L 80.882812 71.640625 L 80.148438 71.640625 L 79.519531 69.957031 L 76.628906 69.957031 L 76 71.640625 L 75.292969 71.640625 Z M 79.296875 69.332031 L 78.082031 66.082031 L 76.855469 69.332031 Z M 79.296875 69.332031 " fill-opacity="1" fill-rule="nonzero"/></g><g clip-path="url(#3ee1efc2a0)"><path fill="#ffffff" d="M 84.972656 65.875 L 83.160156 65.875 L 83.160156 65.234375 L 87.472656 65.234375 L 87.472656 65.875 L 85.660156 65.875 L 85.660156 71.644531 L 84.972656 71.644531 Z M 84.972656 65.875 " fill-opacity="1" fill-rule="nonzero"/></g><g clip-path="url(#9b484949d6)"><path fill="#ffffff" d="M 90.941406 65.234375 L 91.640625 65.234375 L 91.640625 71.640625 L 90.941406 71.640625 Z M 90.941406 65.234375 " fill-opacity="1" fill-rule="nonzero"/></g><g clip-path="url(#3e8836eb97)"><path fill="#ffffff" d="M 95.292969 68.480469 L 95.292969 68.402344 C 95.292969 66.523438 96.433594 65.132812 98.074219 65.132812 C 99.71875 65.132812 100.832031 66.515625 100.832031 68.390625 L 100.832031 68.476562 C 100.832031 70.351562 99.710938 71.742188 98.0625 71.742188 C 96.417969 71.742188 95.292969 70.359375 95.292969 68.480469 Z M 100.113281 68.472656 L 100.113281 68.410156 C 100.113281 66.863281 99.242188 65.761719 98.0625 65.761719 C 96.875 65.761719 96.011719 66.855469 96.011719 68.398438 L 96.011719 68.464844 C 96.011719 70.011719 96.886719 71.109375 98.074219 71.109375 C 99.25 71.109375 100.113281 70.019531 100.113281 68.472656 Z M 100.113281 68.472656 " fill-opacity="1" fill-rule="nonzero"/></g><g clip-path="url(#c058cdd6bc)"><path fill="#ffffff" d="M 104.429688 65.234375 L 105.082031 65.234375 L 108.449219 70.269531 L 108.449219 65.234375 L 109.128906 65.234375 L 109.128906 71.640625 L 108.546875 71.640625 L 105.101562 66.46875 L 105.101562 71.640625 L 104.429688 71.640625 Z M 104.429688 65.234375 " fill-opacity="1" fill-rule="nonzero"/></g><g clip-path="url(#1080eb5143)"><path fill="#ffffff" d="M 112.542969 70.824219 L 112.976562 70.304688 C 113.46875 70.824219 114.074219 71.089844 114.789062 71.101562 C 114.949219 71.121094 115.101562 71.109375 115.257812 71.0625 C 115.410156 71.019531 115.546875 70.945312 115.667969 70.84375 C 115.792969 70.742188 115.890625 70.621094 115.960938 70.480469 C 116.035156 70.339844 116.074219 70.191406 116.085938 70.03125 L 116.085938 70.011719 C 116.085938 69.480469 115.820312 69.144531 114.652344 68.730469 C 113.316406 68.238281 112.800781 67.761719 112.800781 66.855469 L 112.800781 66.832031 C 112.8125 66.589844 112.867188 66.359375 112.972656 66.140625 C 113.074219 65.921875 113.21875 65.730469 113.402344 65.570312 C 113.585938 65.410156 113.792969 65.292969 114.023438 65.21875 C 114.253906 65.144531 114.492188 65.117188 114.734375 65.140625 C 115.476562 65.128906 116.117188 65.367188 116.667969 65.863281 L 116.253906 66.402344 C 115.820312 65.988281 115.304688 65.777344 114.707031 65.769531 C 114.558594 65.753906 114.414062 65.765625 114.273438 65.804688 C 114.128906 65.847656 114 65.914062 113.886719 66.011719 C 113.769531 66.105469 113.679688 66.21875 113.609375 66.347656 C 113.542969 66.480469 113.503906 66.621094 113.492188 66.769531 L 113.492188 66.789062 C 113.492188 67.34375 113.777344 67.667969 114.992188 68.105469 C 116.308594 68.589844 116.769531 69.113281 116.769531 69.964844 L 116.769531 69.980469 C 116.769531 71.007812 115.933594 71.730469 114.785156 71.730469 C 113.914062 71.734375 113.164062 71.433594 112.542969 70.824219 Z M 112.542969 70.824219 " fill-opacity="1" fill-rule="nonzero"/></g></svg>