<svg xmlns="http://www.w3.org/2000/svg" xmlns:xlink="http://www.w3.org/1999/xlink" width="190" zoomAndPan="magnify" viewBox="0 0 142.5 74.999997" height="100" preserveAspectRatio="xMidYMid meet" version="1.0"><defs><clipPath id="3680b56a08"><path d="M 60 7.605469 L 87 7.605469 L 87 34 L 60 34 Z M 60 7.605469 " clip-rule="nonzero"/></clipPath><clipPath id="1c4b5ad19d"><path d="M 17.488281 43 L 28 43 L 28 55 L 17.488281 55 Z M 17.488281 43 " clip-rule="nonzero"/></clipPath><clipPath id="30b2bad55b"><path d="M 116 43 L 124.363281 43 L 124.363281 55 L 116 55 Z M 116 43 " clip-rule="nonzero"/></clipPath><clipPath id="e3890f4afe"><path d="M 33 59 L 35 59 L 35 65.152344 L 33 65.152344 Z M 33 59 " clip-rule="nonzero"/></clipPath><clipPath id="22fa6ab768"><path d="M 37 59 L 42 59 L 42 65.152344 L 37 65.152344 Z M 37 59 " clip-rule="nonzero"/></clipPath><clipPath id="9fbf273b02"><path d="M 44 59 L 48 59 L 48 65.152344 L 44 65.152344 Z M 44 59 " clip-rule="nonzero"/></clipPath><clipPath id="f895fb7743"><path d="M 50 59 L 54 59 L 54 65.152344 L 50 65.152344 Z M 50 59 " clip-rule="nonzero"/></clipPath><clipPath id="db2721b649"><path d="M 55 59 L 61 59 L 61 65.152344 L 55 65.152344 Z M 55 59 " clip-rule="nonzero"/></clipPath><clipPath id="d897ee95a2"><path d="M 63 59 L 67 59 L 67 65.152344 L 63 65.152344 Z M 63 59 " clip-rule="nonzero"/></clipPath><clipPath id="db5950f210"><path d="M 68 59 L 73 59 L 73 65.152344 L 68 65.152344 Z M 68 59 " clip-rule="nonzero"/></clipPath><clipPath id="4101ea1adc"><path d="M 74 59 L 80 59 L 80 65.152344 L 74 65.152344 Z M 74 59 " clip-rule="nonzero"/></clipPath><clipPath id="fecb6ef7d4"><path d="M 80 59 L 85 59 L 85 65.152344 L 80 65.152344 Z M 80 59 " clip-rule="nonzero"/></clipPath><clipPath id="d03d57917a"><path d="M 87 59 L 88 59 L 88 65.152344 L 87 65.152344 Z M 87 59 " clip-rule="nonzero"/></clipPath><clipPath id="195f4ee073"><path d="M 90 59 L 96 59 L 96 65.152344 L 90 65.152344 Z M 90 59 " clip-rule="nonzero"/></clipPath><clipPath id="c76d7817e3"><path d="M 98 59 L 103 59 L 103 65.152344 L 98 65.152344 Z M 98 59 " clip-rule="nonzero"/></clipPath><clipPath id="845c2939ce"><path d="M 105 59 L 109 59 L 109 65.152344 L 105 65.152344 Z M 105 59 " clip-rule="nonzero"/></clipPath></defs><g clip-path="url(#3680b56a08)"><path fill="#ffffff" d="M 73.6875 7.605469 L 60.882812 7.605469 L 60.882812 27.078125 L 64.261719 30.527344 L 64.261719 11.007812 L 73.6875 11.007812 C 78.863281 11.007812 83.074219 15.363281 83.074219 20.714844 C 83.074219 26.066406 78.863281 30.421875 73.6875 30.421875 L 70.878906 30.421875 L 70.878906 17.765625 L 67.507812 14.324219 L 67.5 14.324219 L 67.5 33.824219 L 73.6875 33.824219 C 80.726562 33.824219 86.453125 27.945312 86.453125 20.714844 C 86.453125 13.484375 80.726562 7.605469 73.6875 7.605469 Z M 73.6875 7.605469 " fill-opacity="1" fill-rule="nonzero"/></g><path fill="#ffffff" d="M 54.746094 20.808594 L 54.753906 20.816406 C 54.75 20.808594 54.746094 20.804688 54.746094 20.808594 Z M 54.746094 20.808594 " fill-opacity="1" fill-rule="nonzero"/><g clip-path="url(#1c4b5ad19d)"><path fill="#ffffff" d="M 27.144531 48.492188 C 27.144531 51.09375 25.5625 54.050781 20.367188 54.050781 C 19.542969 54.050781 18.574219 54.035156 17.589844 53.96875 L 17.589844 53.90625 C 17.832031 53.875 18.074219 53.742188 18.089844 53.269531 C 18.121094 52.214844 18.121094 51.15625 18.121094 48.636719 C 18.121094 46.101562 18.121094 45.042969 18.089844 44.003906 C 18.074219 43.53125 17.832031 43.386719 17.589844 43.371094 L 17.589844 43.304688 C 18.300781 43.273438 20.058594 43.253906 20.316406 43.253906 C 24.109375 43.253906 27.144531 44.457031 27.144531 48.492188 Z M 25.335938 48.492188 C 25.335938 45.777344 24.046875 43.742188 20.367188 43.742188 C 20.191406 43.742188 20.011719 43.742188 19.816406 43.757812 C 19.785156 44.328125 19.785156 45.09375 19.785156 46.070312 L 19.785156 51.207031 C 19.785156 52.183594 19.785156 52.832031 19.816406 53.46875 C 20.042969 53.484375 20.253906 53.484375 20.480469 53.484375 C 23.753906 53.484375 25.335938 51.824219 25.335938 48.492188 Z M 25.335938 48.492188 " fill-opacity="1" fill-rule="nonzero"/></g><path fill="#ffffff" d="M 41.234375 52.457031 C 41.152344 52.636719 40.570312 53.808594 40.554688 53.972656 L 35.117188 53.972656 C 34.375 53.972656 33.839844 53.988281 33.292969 54.035156 L 33.277344 53.972656 C 33.429688 53.925781 33.550781 53.835938 33.644531 53.707031 C 33.734375 53.578125 33.78125 53.433594 33.777344 53.273438 C 33.808594 52.214844 33.808594 51.160156 33.808594 48.636719 C 33.808594 46.101562 33.808594 45.042969 33.777344 44.003906 C 33.78125 43.84375 33.738281 43.699219 33.644531 43.570312 C 33.550781 43.441406 33.429688 43.351562 33.277344 43.304688 L 33.292969 43.222656 C 33.839844 43.273438 34.371094 43.304688 35.066406 43.304688 L 40.003906 43.304688 C 40.132812 43.839844 40.308594 44.359375 40.523438 44.863281 L 40.441406 44.960938 C 39.394531 44.019531 38.105469 43.757812 36.617188 43.757812 C 36.265625 43.757812 35.890625 43.757812 35.503906 43.792969 C 35.472656 44.75 35.472656 45.351562 35.472656 46.167969 L 35.472656 48.230469 C 38.667969 48.199219 39.054688 48.035156 39.234375 47.371094 L 39.3125 47.386719 C 39.265625 47.746094 39.246094 48.109375 39.25 48.472656 C 39.242188 48.835938 39.265625 49.199219 39.3125 49.5625 L 39.234375 49.578125 C 39.054688 48.863281 38.667969 48.746094 35.472656 48.730469 L 35.472656 51.171875 C 35.472656 52.144531 35.472656 52.84375 35.503906 53.464844 L 36.132812 53.464844 C 38.101562 53.464844 39.976562 53.234375 41.152344 52.390625 Z M 41.234375 52.457031 " fill-opacity="1" fill-rule="nonzero"/><path fill="#ffffff" d="M 50.527344 47.515625 C 52.5625 48.394531 53.757812 49.175781 53.757812 51.128906 C 53.757812 53.207031 51.980469 54.3125 49.914062 54.3125 C 48.75 54.3125 47.363281 53.921875 46.671875 53.273438 L 46.394531 51.257812 L 46.523438 51.207031 C 47.378906 53.011719 48.769531 53.695312 49.945312 53.695312 C 51.316406 53.695312 52.285156 52.933594 52.285156 51.535156 C 52.285156 50.476562 51.589844 49.875 49.671875 49.011719 C 47.542969 48.054688 46.671875 47.289062 46.671875 45.941406 C 46.671875 43.9375 48.21875 42.964844 50.125 42.964844 C 51.332031 42.964844 52.382812 43.273438 52.964844 43.828125 L 53.125 45.582031 L 53.042969 45.648438 C 52.929688 45.34375 52.769531 45.066406 52.566406 44.8125 C 52.367188 44.558594 52.128906 44.339844 51.863281 44.160156 C 51.59375 43.980469 51.304688 43.84375 50.992188 43.753906 C 50.683594 43.664062 50.367188 43.621094 50.042969 43.632812 C 48.800781 43.632812 48.074219 44.378906 48.074219 45.289062 C 48.074219 46.183594 48.625 46.71875 50.527344 47.515625 Z M 50.527344 47.515625 " fill-opacity="1" fill-rule="nonzero"/><path fill="#ffffff" d="M 62.4375 54.035156 C 62.210938 54.003906 61.339844 53.96875 61.101562 53.96875 C 60.644531 53.960938 60.195312 53.980469 59.742188 54.035156 L 59.726562 53.96875 C 59.878906 53.925781 60.003906 53.835938 60.09375 53.707031 C 60.1875 53.578125 60.230469 53.429688 60.226562 53.269531 C 60.261719 52.214844 60.261719 51.15625 60.261719 48.636719 C 60.261719 46.101562 60.261719 45.042969 60.226562 44.003906 C 60.230469 43.84375 60.183594 43.695312 60.09375 43.566406 C 60 43.433594 59.878906 43.339844 59.726562 43.289062 L 59.742188 43.222656 C 60.195312 43.28125 60.644531 43.308594 61.101562 43.304688 C 61.546875 43.300781 61.992188 43.273438 62.4375 43.222656 L 62.453125 43.289062 C 62.300781 43.335938 62.175781 43.429688 62.085938 43.5625 C 61.992188 43.695312 61.949219 43.839844 61.953125 44.003906 C 61.90625 45.042969 61.921875 46.101562 61.921875 48.636719 C 61.921875 51.15625 61.90625 52.214844 61.953125 53.269531 C 61.949219 53.433594 61.992188 53.578125 62.085938 53.707031 C 62.179688 53.835938 62.300781 53.925781 62.453125 53.96875 Z M 62.4375 54.035156 " fill-opacity="1" fill-rule="nonzero"/><path fill="#ffffff" d="M 79.964844 49.386719 C 79.59375 49.546875 79.464844 49.695312 79.464844 49.953125 L 79.464844 51.957031 C 78.925781 52.714844 78.246094 53.300781 77.421875 53.71875 C 76.597656 54.136719 75.722656 54.332031 74.800781 54.3125 C 71.476562 54.3125 68.585938 52.070312 68.585938 48.640625 C 68.585938 45.191406 71.476562 42.964844 74.800781 42.964844 C 76.398438 42.964844 78.058594 43.5 79.042969 44.558594 L 79.109375 46.28125 L 79.011719 46.3125 C 78.839844 45.902344 78.609375 45.523438 78.320312 45.179688 C 78.03125 44.835938 77.699219 44.542969 77.324219 44.304688 C 76.949219 44.0625 76.542969 43.882812 76.113281 43.765625 C 75.683594 43.648438 75.246094 43.597656 74.800781 43.617188 C 72.476562 43.617188 70.460938 45.632812 70.460938 48.640625 C 70.460938 51.601562 72.445312 53.648438 74.800781 53.648438 C 75.8125 53.679688 76.769531 53.464844 77.671875 53 L 77.671875 49.957031 C 77.671875 49.714844 77.542969 49.566406 77.171875 49.390625 L 77.1875 49.308594 C 77.578125 49.355469 78.414062 49.371094 78.671875 49.371094 C 78.914062 49.371094 79.546875 49.355469 79.949219 49.308594 Z M 79.964844 49.386719 " fill-opacity="1" fill-rule="nonzero"/><path fill="#ffffff" d="M 96.859375 43.304688 C 96.53125 43.421875 96.363281 43.652344 96.359375 44.003906 C 96.277344 45.042969 96.261719 46.101562 96.261719 48.636719 C 96.261719 51.160156 96.246094 53.253906 96.277344 54.3125 L 95.84375 54.3125 L 91.019531 49.191406 C 91.019531 49.191406 89.808594 47.921875 86.839844 44.703125 C 86.871094 45.777344 86.921875 46.996094 86.921875 48.636719 C 86.894531 50.183594 86.949219 51.730469 87.082031 53.273438 C 87.097656 53.613281 87.265625 53.847656 87.582031 53.972656 L 87.566406 54.035156 C 87.273438 53.988281 86.976562 53.96875 86.679688 53.972656 C 86.386719 53.96875 86.09375 53.988281 85.804688 54.035156 L 85.789062 53.972656 C 86.113281 53.851562 86.28125 53.621094 86.289062 53.273438 C 86.371094 52.214844 86.386719 51.160156 86.386719 48.636719 C 86.386719 46.101562 86.386719 45.417969 86.355469 44.378906 C 86.296875 43.859375 86.027344 43.503906 85.546875 43.304688 L 85.5625 43.222656 C 85.972656 43.277344 86.378906 43.304688 86.789062 43.304688 L 87.757812 43.304688 C 90.421875 46.214844 92.082031 47.972656 92.082031 47.972656 C 92.082031 47.972656 93.730469 49.726562 95.777344 51.824219 C 95.761719 50.898438 95.714844 49.484375 95.699219 48.636719 C 95.648438 46.101562 95.617188 45.042969 95.519531 44.003906 C 95.515625 43.84375 95.46875 43.699219 95.371094 43.570312 C 95.277344 43.441406 95.152344 43.351562 95 43.304688 L 95.019531 43.222656 C 95.320312 43.277344 95.628906 43.304688 95.9375 43.304688 C 96.242188 43.304688 96.542969 43.277344 96.839844 43.222656 Z M 96.859375 43.304688 " fill-opacity="1" fill-rule="nonzero"/><path fill="#ffffff" d="M 110.785156 52.457031 C 110.707031 52.636719 110.125 53.808594 110.109375 53.972656 L 104.671875 53.972656 C 103.929688 53.972656 103.394531 53.988281 102.847656 54.035156 L 102.832031 53.972656 C 102.984375 53.925781 103.105469 53.835938 103.199219 53.707031 C 103.289062 53.578125 103.335938 53.433594 103.332031 53.273438 C 103.363281 52.214844 103.363281 51.160156 103.363281 48.636719 C 103.363281 46.101562 103.363281 45.042969 103.332031 44.003906 C 103.335938 43.84375 103.289062 43.699219 103.199219 43.570312 C 103.105469 43.441406 102.984375 43.351562 102.832031 43.304688 L 102.847656 43.222656 C 103.394531 43.273438 103.925781 43.304688 104.621094 43.304688 L 109.558594 43.304688 C 109.6875 43.839844 109.863281 44.359375 110.078125 44.863281 L 109.996094 44.960938 C 108.949219 44.019531 107.65625 43.757812 106.171875 43.757812 C 105.816406 43.757812 105.445312 43.757812 105.058594 43.792969 C 105.027344 44.75 105.027344 45.351562 105.027344 46.167969 L 105.027344 48.230469 C 108.222656 48.199219 108.609375 48.035156 108.785156 47.371094 L 108.867188 47.386719 C 108.820312 47.746094 108.800781 48.109375 108.804688 48.472656 C 108.796875 48.835938 108.820312 49.199219 108.867188 49.5625 L 108.785156 49.578125 C 108.609375 48.863281 108.222656 48.746094 105.027344 48.730469 L 105.027344 51.171875 C 105.027344 52.144531 105.027344 52.84375 105.058594 53.464844 L 105.6875 53.464844 C 107.65625 53.464844 109.53125 53.234375 110.707031 52.390625 Z M 110.785156 52.457031 " fill-opacity="1" fill-rule="nonzero"/><g clip-path="url(#30b2bad55b)"><path fill="#ffffff" d="M 124.261719 53.855469 C 123.882812 54.054688 123.480469 54.140625 123.054688 54.117188 C 121.230469 54.117188 120.664062 52.460938 120.132812 51.027344 C 119.777344 50.039062 119.453125 49.160156 118.746094 49.011719 L 118.308594 49.011719 L 118.308594 49.777344 C 118.308594 51.695312 118.308594 52.328125 118.339844 53.273438 C 118.332031 53.433594 118.375 53.578125 118.46875 53.710938 C 118.5625 53.839844 118.6875 53.929688 118.839844 53.972656 L 118.824219 54.039062 C 118.382812 53.992188 117.945312 53.96875 117.5 53.972656 C 117.042969 53.96875 116.585938 53.992188 116.128906 54.039062 L 116.113281 53.972656 C 116.265625 53.925781 116.386719 53.835938 116.480469 53.707031 C 116.574219 53.578125 116.617188 53.433594 116.613281 53.273438 C 116.644531 52.214844 116.644531 51.175781 116.644531 48.640625 C 116.644531 46.101562 116.644531 45.046875 116.613281 44.003906 C 116.597656 43.613281 116.4375 43.386719 116.128906 43.371094 L 116.128906 43.304688 C 116.855469 43.273438 117.777344 43.257812 118.792969 43.257812 C 121.761719 43.257812 123.003906 44.472656 123.003906 45.9375 C 123.003906 47.695312 121.550781 48.636719 119.792969 48.929688 C 120.679688 49.273438 121.40625 50.425781 122.066406 51.53125 C 122.777344 52.6875 123.390625 53.792969 124.070312 53.792969 C 124.128906 53.789062 124.1875 53.777344 124.246094 53.761719 Z M 121.277344 45.9375 C 121.277344 44.621094 120.535156 43.792969 118.339844 43.792969 C 118.308594 44.769531 118.308594 46.265625 118.308594 48.394531 C 118.425781 48.40625 118.542969 48.414062 118.664062 48.410156 C 120.4375 48.410156 121.277344 47.351562 121.277344 45.9375 Z M 121.277344 45.9375 " fill-opacity="1" fill-rule="nonzero"/></g><g clip-path="url(#e3890f4afe)"><path fill="#ffffff" d="M 33.789062 59.707031 L 34.367188 59.707031 L 34.367188 65.070312 L 33.789062 65.070312 Z M 33.789062 59.707031 " fill-opacity="1" fill-rule="nonzero"/></g><g clip-path="url(#22fa6ab768)"><path fill="#ffffff" d="M 37.589844 59.707031 L 38.128906 59.707031 L 40.914062 63.921875 L 40.914062 59.707031 L 41.472656 59.707031 L 41.472656 65.070312 L 40.996094 65.070312 L 38.144531 60.742188 L 38.144531 65.070312 L 37.589844 65.070312 Z M 37.589844 59.707031 " fill-opacity="1" fill-rule="nonzero"/></g><g clip-path="url(#9fbf273b02)"><path fill="#ffffff" d="M 44.296875 64.386719 L 44.65625 63.953125 C 45.0625 64.382812 45.5625 64.605469 46.152344 64.617188 C 46.285156 64.632812 46.414062 64.625 46.539062 64.585938 C 46.664062 64.546875 46.777344 64.488281 46.878906 64.402344 C 46.980469 64.316406 47.0625 64.214844 47.121094 64.097656 C 47.183594 63.980469 47.214844 63.855469 47.226562 63.722656 L 47.226562 63.707031 C 47.226562 63.261719 47.003906 62.976562 46.039062 62.632812 C 44.9375 62.21875 44.511719 61.820312 44.511719 61.0625 L 44.511719 61.042969 C 44.515625 60.84375 44.5625 60.648438 44.648438 60.464844 C 44.734375 60.28125 44.855469 60.125 45.007812 59.988281 C 45.15625 59.855469 45.328125 59.757812 45.519531 59.695312 C 45.710938 59.632812 45.90625 59.609375 46.109375 59.628906 C 46.71875 59.617188 47.25 59.820312 47.703125 60.230469 L 47.363281 60.683594 C 47.007812 60.339844 46.582031 60.164062 46.085938 60.15625 C 45.964844 60.140625 45.84375 60.152344 45.726562 60.183594 C 45.605469 60.21875 45.5 60.277344 45.40625 60.355469 C 45.308594 60.433594 45.234375 60.53125 45.179688 60.640625 C 45.121094 60.75 45.089844 60.867188 45.082031 60.992188 L 45.082031 61.007812 C 45.082031 61.472656 45.316406 61.742188 46.320312 62.109375 C 47.410156 62.515625 47.789062 62.953125 47.789062 63.664062 L 47.789062 63.679688 C 47.789062 64.539062 47.097656 65.144531 46.148438 65.144531 C 45.429688 65.148438 44.8125 64.894531 44.296875 64.386719 Z M 44.296875 64.386719 " fill-opacity="1" fill-rule="nonzero"/></g><g clip-path="url(#f895fb7743)"><path fill="#ffffff" d="M 51.765625 60.242188 L 50.265625 60.242188 L 50.265625 59.707031 L 53.832031 59.707031 L 53.832031 60.242188 L 52.335938 60.242188 L 52.335938 65.070312 L 51.765625 65.070312 Z M 51.765625 60.242188 " fill-opacity="1" fill-rule="nonzero"/></g><g clip-path="url(#db2721b649)"><path fill="#ffffff" d="M 57.742188 59.667969 L 58.304688 59.667969 L 60.332031 65.070312 L 59.722656 65.070312 L 59.207031 63.660156 L 56.808594 63.660156 L 56.292969 65.070312 L 55.707031 65.070312 Z M 59.019531 63.136719 L 58.015625 60.417969 L 57.003906 63.136719 Z M 59.019531 63.136719 " fill-opacity="1" fill-rule="nonzero"/></g><g clip-path="url(#d897ee95a2)"><path fill="#ffffff" d="M 63.125 59.707031 L 63.703125 59.707031 L 63.703125 64.542969 L 66.160156 64.542969 L 66.160156 65.070312 L 63.125 65.070312 Z M 63.125 59.707031 " fill-opacity="1" fill-rule="nonzero"/></g><g clip-path="url(#db5950f210)"><path fill="#ffffff" d="M 68.972656 59.707031 L 69.550781 59.707031 L 69.550781 64.542969 L 72.007812 64.542969 L 72.007812 65.070312 L 68.972656 65.070312 Z M 68.972656 59.707031 " fill-opacity="1" fill-rule="nonzero"/></g><g clip-path="url(#4101ea1adc)"><path fill="#ffffff" d="M 76.457031 59.667969 L 77.015625 59.667969 L 79.046875 65.070312 L 78.4375 65.070312 L 77.921875 63.660156 L 75.527344 63.660156 L 75.011719 65.070312 L 74.425781 65.070312 Z M 77.734375 63.136719 L 76.730469 60.417969 L 75.71875 63.136719 Z M 77.734375 63.136719 " fill-opacity="1" fill-rule="nonzero"/></g><g clip-path="url(#fecb6ef7d4)"><path fill="#ffffff" d="M 82.425781 60.242188 L 80.925781 60.242188 L 80.925781 59.707031 L 84.492188 59.707031 L 84.492188 60.242188 L 82.996094 60.242188 L 82.996094 65.070312 L 82.425781 65.070312 Z M 82.425781 60.242188 " fill-opacity="1" fill-rule="nonzero"/></g><g clip-path="url(#d03d57917a)"><path fill="#ffffff" d="M 87.359375 59.707031 L 87.9375 59.707031 L 87.9375 65.070312 L 87.359375 65.070312 Z M 87.359375 59.707031 " fill-opacity="1" fill-rule="nonzero"/></g><g clip-path="url(#195f4ee073)"><path fill="#ffffff" d="M 90.957031 62.425781 L 90.957031 62.359375 C 90.957031 60.789062 91.902344 59.621094 93.253906 59.621094 C 94.617188 59.621094 95.535156 60.78125 95.535156 62.351562 L 95.535156 62.417969 C 95.535156 63.988281 94.609375 65.15625 93.246094 65.15625 C 91.886719 65.15625 90.957031 63.996094 90.957031 62.425781 Z M 94.941406 62.417969 L 94.941406 62.363281 C 94.941406 61.070312 94.21875 60.148438 93.246094 60.148438 C 92.265625 60.148438 91.550781 61.0625 91.550781 62.355469 L 91.550781 62.410156 C 91.550781 63.703125 92.273438 64.625 93.253906 64.625 C 94.226562 64.625 94.941406 63.714844 94.941406 62.417969 Z M 94.941406 62.417969 " fill-opacity="1" fill-rule="nonzero"/></g><g clip-path="url(#c76d7817e3)"><path fill="#ffffff" d="M 98.507812 59.707031 L 99.046875 59.707031 L 101.832031 63.921875 L 101.832031 59.707031 L 102.390625 59.707031 L 102.390625 65.070312 L 101.914062 65.070312 L 99.0625 60.742188 L 99.0625 65.070312 L 98.507812 65.070312 Z M 98.507812 59.707031 " fill-opacity="1" fill-rule="nonzero"/></g><g clip-path="url(#845c2939ce)"><path fill="#ffffff" d="M 105.214844 64.386719 L 105.574219 63.953125 C 105.980469 64.382812 106.480469 64.605469 107.070312 64.617188 C 107.203125 64.632812 107.332031 64.625 107.457031 64.585938 C 107.582031 64.546875 107.699219 64.488281 107.796875 64.402344 C 107.898438 64.316406 107.980469 64.214844 108.039062 64.097656 C 108.101562 63.980469 108.132812 63.855469 108.144531 63.722656 L 108.144531 63.707031 C 108.144531 63.261719 107.921875 62.976562 106.957031 62.632812 C 105.855469 62.21875 105.429688 61.820312 105.429688 61.0625 L 105.429688 61.042969 C 105.4375 60.84375 105.484375 60.648438 105.570312 60.464844 C 105.65625 60.28125 105.773438 60.125 105.925781 59.988281 C 106.074219 59.855469 106.246094 59.757812 106.4375 59.695312 C 106.628906 59.632812 106.824219 59.609375 107.027344 59.628906 C 107.636719 59.617188 108.171875 59.820312 108.625 60.230469 L 108.28125 60.683594 C 107.925781 60.339844 107.5 60.164062 107.003906 60.15625 C 106.882812 60.140625 106.761719 60.152344 106.644531 60.183594 C 106.523438 60.21875 106.417969 60.277344 106.324219 60.355469 C 106.230469 60.433594 106.152344 60.53125 106.097656 60.640625 C 106.039062 60.75 106.007812 60.867188 106 60.992188 L 106 61.007812 C 106 61.472656 106.234375 61.742188 107.238281 62.109375 C 108.328125 62.515625 108.707031 62.953125 108.707031 63.664062 L 108.707031 63.679688 C 108.707031 64.539062 108.015625 65.144531 107.066406 65.144531 C 106.347656 65.148438 105.730469 64.894531 105.214844 64.386719 Z M 105.214844 64.386719 " fill-opacity="1" fill-rule="nonzero"/></g></svg>